<svg id="Capa_1" enable-background="new 0 0 512.005 512.005" height="512" viewBox="0 0 512.005 512.005" width="512" xmlns="http://www.w3.org/2000/svg"><g><path d="m256.003 16.002c-8.291 0-15 6.709-15 15v90c0 8.291 6.709 15 15 15s15-6.709 15-15v-90c0-8.291-6.709-15-15-15z" fill="#d5e8fe"/><path d="m271.003 121.002v-90c0-8.291-6.709-15-15-15v120c8.291 0 15-6.708 15-15z" fill="#b5dbff"/><path d="m2.141 452.716c-4.263-7.104-1.963-16.318 5.142-20.581l91-53.994c7.119-4.263 16.304-1.963 20.581 5.142 4.263 7.104 1.963 16.318-5.142 20.581l-91 53.994c-7.086 4.252-16.311 1.974-20.581-5.142z" fill="#d5e8fe"/><path d="m489.283 457.858-91-53.994c-7.104-4.263-9.404-13.477-5.142-20.581s13.447-9.404 20.581-5.142l91 53.994c7.104 4.263 9.404 13.477 5.142 20.581-4.27 7.116-13.496 9.393-20.581 5.142z" fill="#b5dbff"/><path d="m419.054 203.611-34.603-10.4-25.393 44.383-103.055 188.433-30 33.97 30 36.006c2.714 0 5.383-.74 7.72-2.139l150-90c2.256-1.355 4.076-3.252 5.332-5.469s1.948-4.755 1.948-7.392v-180c0-2.637-.693-5.175-1.949-7.392z" fill="#25d9f8"/><path d="m152.951 237.588-29.33-46.609-30.67 12.632c-1.256 2.217-1.948 4.755-1.948 7.392v180c0 2.637.692 5.175 1.948 7.392s3.076 4.114 5.332 5.469l150 90c2.336 1.399 5.006 2.139 7.72 2.139v-69.976z" fill="#51faff"/><path d="m413.722 198.141-150-90c-2.373-1.421-5.046-2.131-7.72-2.131l-30 37.962 30 32.014 52.499 61.385 50.556.223 59.996-33.983c-1.255-2.218-3.075-4.115-5.331-5.47z" fill="#51faff"/><path d="m248.283 108.141-150 90c-2.256 1.355-4.076 3.252-5.332 5.469l60 33.977 51.526-.801 51.526-60.801v-69.975c-2.674 0-5.347.71-7.72 2.131z" fill="#9bfcff"/><path d="m359.058 237.593c-1.256-2.217-3.076-4.118-5.336-5.475l-90-53.994c-2.379-1.425-5.056-2.139-7.72-2.139-2.761 0-5.425.765-7.72 2.139l-90 53.994c-2.256 1.355-4.076 3.252-5.332 5.469s-1.948 4.755-1.948 7.392v112.061c0 2.618.683 5.158 1.948 7.392h103.052 103.052c.628-1.11 1.115-2.298 1.445-3.539.331-1.241.504-2.534.504-3.853v-112.06c0-2.632-.691-5.168-1.945-7.387z" fill="#d5e8fe"/><path d="m360.499 360.893c.331-1.241.504-2.534.504-3.853v-112.06c0-2.631-.69-5.167-1.945-7.386-1.256-2.217-3.076-4.118-5.336-5.475l-90-53.994c-2.379-1.425-5.056-2.139-7.72-2.139v188.447h103.052c.628-1.111 1.115-2.299 1.445-3.54z" fill="#b5dbff"/><path d="m263.865 303.236c-2.41-1.483-5.138-2.227-7.863-2.227-2.726 0-5.451.743-7.863 2.227l-95.189 61.196c1.256 2.217 3.076 4.114 5.332 5.469l90 53.994c2.373 1.421 5.046 2.131 7.72 2.131 2.673 0 5.347-.71 7.72-2.131l90-53.994c2.256-1.355 4.076-3.252 5.332-5.469z" fill="#edf5ff"/><path d="m263.865 303.236c-2.41-1.483-5.138-2.227-7.863-2.227v125.017c2.673 0 5.347-.71 7.72-2.131l90-53.994c2.256-1.355 4.076-3.252 5.332-5.469z" fill="#d5e8fe"/></g></svg>